<svg width="39" height="39" viewBox="0 0 39 39" fill="none" xmlns="http://www.w3.org/2000/svg">
<path d="M37 37L26.427 25.0406M26.427 25.0406C23.9316 27.1999 18.4164 29.7975 15.1625 29.7907C12.5168 29.7344 9.94618 28.8716 7.77276 27.3107C5.59935 25.7497 3.9199 23.56 2.94509 21.0161C1.97029 18.4722 1.74345 15.6873 2.29304 13.0106C2.84264 10.3339 4.14425 7.88462 6.03456 5.96974C7.92487 4.05486 10.3198 2.75966 12.9191 2.24654C15.5184 1.73341 18.2062 2.02519 20.6458 3.0853C23.0853 4.14541 25.168 5.92667 26.6325 8.20573C28.097 10.4848 28.8784 13.1602 28.8784 15.8965C28.8772 19.0225 26.427 25.0406 26.427 25.0406Z" stroke="#A43737" stroke-width="4"/>
</svg>
